<svg id="Ebene_2" data-name="Ebene 2" xmlns="http://www.w3.org/2000/svg" viewBox="0 0 243 41"><defs><style>.cls-1{fill:#dc5c40;}.cls-2{fill:#a51e37;}.cls-3{fill:gray;}</style></defs><title>logo</title><path class="cls-1" d="M7.78,22.12a4.76,4.76,0,0,1-3.56,1.35c-2.06,0-3.26-1.11-3.26-3,0-2.25,1.64-3.58,4.69-3.8l2.06-.15V14.4c0-1.74-.65-2.49-2.18-2.49-1.31,0-2.06.44-2.06,1.18a1.06,1.06,0,0,0,.8,1,1.25,1.25,0,0,1-1.5,1.23,1.42,1.42,0,0,1-1.5-1.5c0-1.79,1.64-2.93,4.26-2.93s4.4,1.31,4.4,3.53v7.28a5,5,0,0,0,1.81.7l-0.1.9H8ZM7.7,17.6l-2,.17a2.45,2.45,0,0,0-2.49,2.49c0,1.4.56,2.13,1.64,2.13a3.92,3.92,0,0,0,2.8-1.5V17.6Z"/><path class="cls-1" d="M14.14,8.82c0-1.14-.56-1.48-1.81-1.52l0.07-.77a30,30,0,0,0,3.46-.89l0.51,0.27v6.8a3.32,3.32,0,0,1,3-1.81c3.58,0,4.93,2.61,4.93,6.24s-1.81,6.36-5.44,6.36a4.28,4.28,0,0,1-3-1.28,3.52,3.52,0,0,0-.53,1.09H14.14V8.82Zm2.23,12.24a4,4,0,0,0,2.59,1.31c2.66,0,3-2.83,3-5.25,0-2.68-.22-5.13-2.56-5.13-2.68,0-3,3.07-3,6v3.12Z"/><path class="cls-1" d="M26.27,22.34A3.42,3.42,0,0,0,28,21.68v-7.5c0-1.31-.48-1.67-1.81-1.72l0.07-.77a30.14,30.14,0,0,0,3.46-.89l0.51,0.27V21.68a4.65,4.65,0,0,0,1.81.7l-0.1.9H26.18ZM27.6,7.41A1.27,1.27,0,0,1,29,5.92a1.29,1.29,0,0,1,1.38,1.5A1.31,1.31,0,0,1,29,8.94,1.29,1.29,0,0,1,27.6,7.41Z"/><path class="cls-1" d="M35.12,12.4H33V11.67A4.93,4.93,0,0,0,36.33,8.5h1V11h3V12.4h-3v8.05c0,1.11.1,1.79,1.21,1.79a2.91,2.91,0,0,0,1.62-.51l0.51,0.77a4.09,4.09,0,0,1-2.78,1c-2.23,0-2.78-1-2.78-3.22V12.4Z"/><path class="cls-1" d="M43.3,14.19c0-1.31-.48-1.67-1.81-1.72l0.07-.77A30.1,30.1,0,0,0,45,10.8l0.51,0.27v8.49c0,1.62.63,2.73,2.25,2.73a3.37,3.37,0,0,0,2.76-2.06v-6c0-1.31-.48-1.67-1.81-1.72l0.07-.77a30,30,0,0,0,3.46-.89l0.51,0.27V21.68a5,5,0,0,0,1.81.7l-0.1.9H51l-0.27-1.64a4.16,4.16,0,0,1-3.26,1.84c-2.78,0-4.18-1.43-4.18-4.21V14.19Z"/><path class="cls-1" d="M56.35,22.34a3.42,3.42,0,0,0,1.72-.65V14.23c0-1.31-.48-1.67-1.81-1.72l0.07-.77a29.46,29.46,0,0,0,3.19-.87L60,11.12l0.27,1.81a4.1,4.1,0,0,1,3.12-2.06A2.13,2.13,0,0,1,65.69,13a1.48,1.48,0,0,1-1.38,1.62,1.34,1.34,0,0,1-1.33-.8,1.38,1.38,0,0,0,.27-0.73,0.69,0.69,0,0,0-.75-0.8c-1,0-2.2,1.77-2.2,3.46v5.92a5.66,5.66,0,0,0,2.06.7l-0.1.9h-6Z"/><path class="cls-1" d="M66.92,22.34a3.41,3.41,0,0,0,1.72-.65V14.23c0-1.31-.48-1.67-1.81-1.72l0.07-.77a29.34,29.34,0,0,0,3.19-.87l0.46,0.24,0.19,1.35a4.28,4.28,0,0,1,3.1-1.6,3.53,3.53,0,0,1,3.34,1.69,4.89,4.89,0,0,1,3.41-1.69c2.08,0,3.92,1,3.92,3.92v6.89a5,5,0,0,0,1.81.7l-0.1.9H80.49l0.07-.9a3.74,3.74,0,0,0,1.72-.7v-7c0-1.81-.65-2.59-2-2.59a3.11,3.11,0,0,0-2.64,2v7.52a5,5,0,0,0,1.81.7l-0.1.9H73.67l0.07-.9a3.74,3.74,0,0,0,1.72-.7v-7c0-1.81-.65-2.59-2-2.59a3.11,3.11,0,0,0-2.64,2v7.52a4.66,4.66,0,0,0,1.81.7l-0.1.9H66.82Z"/><path class="cls-1" d="M94.75,22.12a4.76,4.76,0,0,1-3.56,1.35c-2.06,0-3.26-1.11-3.26-3,0-2.25,1.64-3.58,4.69-3.8l2.06-.15V14.4c0-1.74-.65-2.49-2.18-2.49-1.31,0-2.06.44-2.06,1.18a1.06,1.06,0,0,0,.8,1,1.25,1.25,0,0,1-1.5,1.23,1.42,1.42,0,0,1-1.5-1.5c0-1.79,1.64-2.93,4.26-2.93s4.4,1.31,4.4,3.53v7.28a5,5,0,0,0,1.81.7l-0.1.9H95ZM94.68,17.6l-2,.17a2.45,2.45,0,0,0-2.49,2.49c0,1.4.56,2.13,1.64,2.13a3.92,3.92,0,0,0,2.8-1.5V17.6Z"/><path class="cls-2" d="M241.87,14.48a3.31,3.31,0,0,0-.41,1.67,0.24,0.24,0,0,1-.25.3,0.51,0.51,0,0,0-.44.69,5.73,5.73,0,0,1-3,5.6,2.84,2.84,0,0,1-.82.27c0.23-.47.14-0.68-0.37-0.78a1.61,1.61,0,0,1-1.14-1.67c0-.16.1-0.42-0.11-0.48a0.58,0.58,0,0,0-.59.29,1.34,1.34,0,0,0-.28.88c0,2,0,3.94,0,5.9a3.12,3.12,0,0,0,2.42,2.63,2.37,2.37,0,0,0,.93.08,2.72,2.72,0,0,1-2.77,1,1.76,1.76,0,0,0,2.29.33c0.25-.16.48-0.35,0.72-0.53a0.91,0.91,0,0,1,.87-0.19,1.41,1.41,0,0,0-.73.93c0,0.27,0,.37.3,0.38a1.4,1.4,0,0,0,.67-0.16c0.59-.29.64-0.26,0.92,0.46a2.85,2.85,0,0,0-1.89.43,3.29,3.29,0,0,1-3.39-.27,0.93,0.93,0,0,0-.53-0.23,2,2,0,0,1,.31.83,0.19,0.19,0,0,0,.27.2,2.59,2.59,0,0,1,1.45.25,1.82,1.82,0,0,0,1.83-.15,2.36,2.36,0,0,1,1.85-.36,1.42,1.42,0,0,1,1,.71,3.94,3.94,0,0,0-1.77.08,2.57,2.57,0,0,0-1,.51,0.33,0.33,0,0,0-.2.31,0.39,0.39,0,0,0,.34.16,4.39,4.39,0,0,0,1.58,0,3.6,3.6,0,0,1-2.6,1,3.85,3.85,0,0,1-1.26-.81,2.06,2.06,0,0,0-1.1-.37c0.72,1.88,2.94,2.24,5.38.91,0,1.16-1.68,2.18-3.62,1.77,0.32,0.37.73,0.5,2.17,0.69-0.62.46-2.1,0.35-3.31-.27a5,5,0,0,1-2.4-2.61,3.54,3.54,0,0,0,2.93,3.61c-1.3.7-2.24,0.32-3.73-1.55a5.54,5.54,0,0,1-.12.89,1.18,1.18,0,0,1-1.52.9,2.45,2.45,0,0,0-1.61,0,1.3,1.3,0,0,1,.67-0.88c0.28-.14.57-0.26,0.85-0.4a1.55,1.55,0,0,0,.79-2,4,4,0,0,1-2.26,1.94,2.47,2.47,0,0,0-.9,1,2,2,0,0,1,.76-1.9c0.29-.22.61-0.4,0.9-0.61a2.08,2.08,0,0,0,.9-1.83,3.83,3.83,0,0,1-2.17,2,2.24,2.24,0,0,0-1.22,2.49c-0.71-.69-0.68-1.56.06-2.53-0.91,0-1.38,1-1,2.15a0.88,0.88,0,0,1-.68-0.86,2,2,0,0,1,.86-1.89c0.52-.37,1.1-0.68,1.62-1.06a1.44,1.44,0,0,0,.42-2c-0.07.26-.11,0.48-0.18,0.7a2,2,0,0,1-1.07,1.17c-0.36.17-.72,0.32-1.09,0.47a2.32,2.32,0,0,0-1.52,1.59,2.86,2.86,0,0,1,1.45-2.63,1.56,1.56,0,0,0,.91-1.5c-0.59,1.18-2,1-2.83,1.74a1.08,1.08,0,0,1,.79-1.22,1.75,1.75,0,0,0,1-.55,1.11,1.11,0,0,0-.75-0.12,1.13,1.13,0,0,1,.74-0.45,2.21,2.21,0,0,0,.9-0.39,0.35,0.35,0,0,0,.23-0.29c0-.16-0.22-0.11-0.35-0.11a2.91,2.91,0,0,0-1.57.38,0.71,0.71,0,0,1-.43.19,3.1,3.1,0,0,1,1-1.12,7.45,7.45,0,0,1,2.35-1c0.48-.13.95-0.28,1.42-0.44A1.77,1.77,0,0,0,231,26.92q0-3,0-6.05c0-.5-0.23-0.67-0.74-0.58a0.87,0.87,0,0,0-.85,1c0,0.31-.11.29-0.31,0.25A1.72,1.72,0,0,1,228,20.8a0.82,0.82,0,0,1-1-.66,0.83,0.83,0,0,0-1.25-.56c-0.69.23-1,0-1.25-.68a4.43,4.43,0,0,1-.23-2.91,0.89,0.89,0,0,0-.06-0.61c-0.88-2.34-1-4.58.84-6.57a0.9,0.9,0,0,0,.18-0.35,3.91,3.91,0,0,1,4.19-2.6,3.22,3.22,0,0,1,2.34,1.67L232,7.89a0.21,0.21,0,0,0,.18-0.15,4,4,0,0,1,4.53-1.81,3.4,3.4,0,0,1,1.86,1.25,1,1,0,0,0,.6.39,3.36,3.36,0,0,1,2.22,2.62,0.6,0.6,0,0,1,0,.29c-0.45.93,0.32,1.6,0.51,2.4v1.59Zm-2-1a3.94,3.94,0,0,0-.57-1.51c-0.22-.28-0.4-0.4-0.66,0a1.18,1.18,0,0,1-.48.46c-0.13-.24-0.24-0.46-0.37-0.67s-0.22-.21-0.33,0a2.25,2.25,0,0,1-.2.73l-1-.68c0,0.7-.2,1-0.88.79-0.16-.06-0.36,0-0.31.23,0.09,0.45-.12.58-0.53,0.58-0.14,0-.43,0-0.4.23a0.75,0.75,0,0,0,.43.52c0.21,0.12.28-.11,0.39-0.21a3.84,3.84,0,0,1,3-1.12c0.48,0,.82,0,0.87-0.72C239.09,12.75,239.15,13.36,239.87,13.45Zm-10.13-1.26-0.74-.1a0.33,0.33,0,0,0-.42.35,7.55,7.55,0,0,1-.22,1.46c-0.09.32,0,.46,0.39,0.34a1.77,1.77,0,0,1,.73-0.06,0.38,0.38,0,0,0,.49-0.47c0-.15,0-0.3,0-0.44a0.57,0.57,0,0,1,0-.52c0.17-.17.27,0.21,0.46,0.09a1.13,1.13,0,0,1,0-.48,1.12,1.12,0,0,0-.21-1.17,0.38,0.38,0,0,0-.4-0.23c-0.17,0-.16.18-0.18,0.31A1,1,0,0,0,229.75,12.19Zm5.84-.32a0.86,0.86,0,0,0-1.4.28,6,6,0,0,0-1,1.69,1,1,0,0,0-.1.7c1.13-.37,1.19-0.46.61-1a0.68,0.68,0,0,1,.45-0.17c0.42-.13.78-0.25,0.61-0.83-0.11-.39.21-0.32,0.43-0.3,0.8,0.06.8,0.07,1-.68a0.18,0.18,0,0,1,.08,0,7.51,7.51,0,0,0,.9.55,3,3,0,0,0,.13-1.52l-0.36.74a1,1,0,0,0-1-.36C235.41,11.11,235.75,11.53,235.59,11.87Zm3.25,5.05c0.43-.9.36-1.09-0.49-1.43a2.8,2.8,0,0,0-1.17-.13c-0.22,0-.29.09-0.21,0.31a4,4,0,0,1,.2,1.22,0.38,0.38,0,0,0,.32.41,1.54,1.54,0,0,1,1,.85c0.2,0.44.28,0.44,0.57,0.05a1.81,1.81,0,0,0,.17-0.3c0.12-.26.07-0.43-0.25-0.37a0.32,0.32,0,0,1-.42-0.33c-0.08-.37-0.11-0.81-0.69-0.5a0.13,0.13,0,0,1-.2-0.06,0.19,0.19,0,0,1,.11-0.24,0.57,0.57,0,0,1,1,.3A1.79,1.79,0,0,0,238.83,16.92Zm-7.61,2a2.88,2.88,0,0,0-.48-1.59,1.93,1.93,0,0,0-3-.46c-0.1.08-.31,0.16-0.21,0.34a0.89,0.89,0,0,0,.58.35c0.16,0.05.23,0,.27-0.19s0.23-.17.36-0.05a1.75,1.75,0,0,1,.36.4c0.18,0.33.32,0.26,0.55,0,0.46-.45.6-0.41,0.86,0.18a3.92,3.92,0,0,1,.19.51A0.69,0.69,0,0,0,231.22,18.91Zm5.62-2.22a2.1,2.1,0,0,0-.18-0.81c-0.08-.37-0.25-0.36-0.52-0.19A4.63,4.63,0,0,0,234.32,18c-0.07.16-.24,0.35,0,0.51s0.4,0,.57-0.19a2.5,2.5,0,0,1,1.54-1.08C236.8,17.15,236.9,17,236.84,16.7Zm-1.39-2.43,1,0.5a0.61,0.61,0,0,0,.45.14,2.84,2.84,0,0,1,1.46,0c0.18,0.06.27,0,.21-0.19a11.2,11.2,0,0,0-.5-1.34c-0.14-.28-0.36-0.25-0.5.05a1.2,1.2,0,0,1-.25.5C236.69,13.29,236.21,13.37,235.45,14.26Zm-7.19-3.68a1.87,1.87,0,0,0,.41-0.73c0.28-.66.28-0.66,0.85-0.25s0.61,0.39.85-.27a2.84,2.84,0,0,0,.08-0.28,0.26,0.26,0,0,0-.26-0.37,3.59,3.59,0,0,0-2.47.5c-0.24.15-.37,0.4-0.06,0.63A2.22,2.22,0,0,1,228.26,10.59Zm6.65-2.3a3.91,3.91,0,0,0-1.53,1.09c-0.55.72-.5,0.88,0.36,1.08,0.12,0,.26.13,0.36,0a0.39,0.39,0,0,0,0-.38A2.5,2.5,0,0,1,234,9.8c-0.07-.25,0-0.39.28-0.31s0.58,0.11.87,0.19,0.35,0,.27-0.28a3.56,3.56,0,0,1-.26-1A0.15,0.15,0,0,0,234.92,8.28Zm-7.66,8.23a0.49,0.49,0,0,0,.07-0.17,1.6,1.6,0,0,1,.79-1.89c0.19-.1.12-0.26,0-0.37a2,2,0,0,0-.44-0.31,0.84,0.84,0,0,0-.77-0.29,1,1,0,0,0,.13.73,0.58,0.58,0,0,0,0,.14c0.14,0.27,0,.35-0.25.37l-0.43.06a4.17,4.17,0,0,0,.25,1.18A1.9,1.9,0,0,0,227.25,16.52ZM231.81,11a8.25,8.25,0,0,0-.64-1.2,0.69,0.69,0,0,0-.53-0.44,0.85,0.85,0,0,0-.22.56c-0.2.47-.18,0.78,0.42,0.9a1.73,1.73,0,0,1,.68.38c0.33,0.26.62,0.56,1,.89a2.24,2.24,0,0,0,.06-0.87,0.79,0.79,0,0,0-.22-0.72C232.07,10.41,232.06,10.85,231.81,11Zm9-.16A2.68,2.68,0,0,0,240,9c-0.09-.08-0.16-0.21-0.33-0.09a1.26,1.26,0,0,0-.06,1.62,10.46,10.46,0,0,1,.88.71c0.15,0.15.26,0.13,0.29-.09S240.82,10.88,240.82,10.84Zm-11,23a2.41,2.41,0,0,0,.5-2.88c-0.12-.24-0.23-0.48-0.33-0.72-0.22-.54-0.24-0.55-0.67-0.12-0.12.12-.43,0.22-0.13,0.49A2.67,2.67,0,0,1,229.79,33.87ZM227,18.64c0.07,0.14-.13.46,0.22,0.47a2.24,2.24,0,0,0,.92-0.13,1.25,1.25,0,0,0,.75-0.58,1,1,0,0,0-.7-0.51l0,0C227.2,17.48,227,17.61,227,18.64Zm12.45,1.74a2.3,2.3,0,0,0,.53-0.85c0.15-.35.49-0.83,0.19-1.08a1.26,1.26,0,0,0-1.25.19l-0.08.05a0.27,0.27,0,0,0-.08.42A2.81,2.81,0,0,1,239.42,20.38ZM241,12.67c-0.79,1-.35,1.93.11,2.86C241.79,14.89,241.62,13.6,241,12.67ZM229.34,6.4c-0.16,0-.36-0.07-0.38.16S228.77,7,229,7.2a2,2,0,0,1,.51.52,0.48,0.48,0,0,0,.87-0.12c0.27-.61.2-0.8-0.45-1C229.76,6.5,229.53,6.46,229.34,6.4Zm6.79,8.76-0.78-.48c-0.12-.07-0.22-0.14-0.34,0a5.46,5.46,0,0,0-.79,1.36c-0.09.23,0.11,0.32,0.24,0.43s0.25,0,.34-0.14a5,5,0,0,1,1.09-1Zm0.25,4.26A1.49,1.49,0,0,0,236,21a0.92,0.92,0,0,0,.83.68,0.26,0.26,0,0,0,.34-0.1,1.14,1.14,0,0,0-.41-1.45,1.41,1.41,0,0,1-.25.79A14.69,14.69,0,0,1,236.38,19.42Zm-12.19-7.56c0,0.7,0,.73.56,0.57a2,2,0,0,0,.71-1.13,0.23,0.23,0,0,0-.08-0.12l-0.73-.62a2.27,2.27,0,0,0-.39.89C224.22,11.63,224.19,11.8,224.19,11.86Zm3.88-4c0.12-.12.53,0.1,0.41-0.27a1.33,1.33,0,0,1,0-.86c0.07-.22,0-0.35-0.24-0.31a2.94,2.94,0,0,0-1.27.52c-0.08.06-.18,0.15-0.06,0.23A2.46,2.46,0,0,0,228.07,7.85Zm8.72,1.29a3.16,3.16,0,0,1,.93-1.28,4.85,4.85,0,0,0-1.93.11c-0.26.07-.38,0.15-0.1,0.36Zm1.67,4.23c0.11,0.32.23,0.58,0.29,0.84a8.34,8.34,0,0,1,.13.83c0,0.2.14,0.26,0.31,0.16a1.34,1.34,0,0,0,.75-0.74,0.86,0.86,0,0,0-.53-0.66A1.79,1.79,0,0,0,238.46,13.37Zm-7.73,3.05c0.29-1.13.2-1.36-.58-1.67-0.15-.06-0.35-0.17-0.39.09s-0.47.57-.05,0.82A6.14,6.14,0,0,1,230.73,16.43ZM233,9.12A7.27,7.27,0,0,1,234.35,8c0.1-.06.29-0.08,0.24-0.26a0.43,0.43,0,0,0-.34-0.27,1,1,0,0,0-1.32,1.06C232.94,8.69,233,8.85,233,9.12Zm-6,2.11,0.25-.15a1.52,1.52,0,0,0,.68-0.43,1.69,1.69,0,0,0-.48-0.63c-0.27-.66-0.48-0.22-0.71,0a2.78,2.78,0,0,0-.2.22c-0.25.3,0.12,0.46,0.17,0.7A0.33,0.33,0,0,0,227,11.23Zm-0.06,5.93a1,1,0,0,0-.71-0.51,0.23,0.23,0,0,0-.28,0,0.24,0.24,0,0,0,0,.28c0.06,0.1.14,0.18,0.2,0.28,0.34,0.52.29,0.68-.27,0.95-0.12.06-.29,0.07-0.13,0.26a2.14,2.14,0,0,0,.61.5c0.09,0,.21.07,0.21-0.08A4.54,4.54,0,0,1,226.91,17.16Zm10.5-10.07a2.33,2.33,0,0,0-1.59-.74c-0.2,0-.56-0.16-0.6.1a0.75,0.75,0,0,0,.44.67,1.19,1.19,0,0,0,.57.11C236.59,7.21,236.95,7.15,237.41,7.09Zm2.83,9.72a1.56,1.56,0,0,0,.25-1.06,0.93,0.93,0,0,0-.28-0.84,1.26,1.26,0,0,0-.81.38l0,0a0.14,0.14,0,0,0,0,.24A6.17,6.17,0,0,1,240.23,16.81Zm-3.57,1.79c-0.1.45,0.26,0.4,0.45,0.5a2.27,2.27,0,0,0,.83-0.61,1,1,0,0,0-.77-0.75C236.59,17.79,236.84,18.36,236.66,18.6Zm-8.47-6c0.05-.59-0.28-0.33-0.46-0.28a1.08,1.08,0,0,0-.85.48,1,1,0,0,0,.62.63c0.45,0.34.52,0.3,0.6-.27C228.13,12.91,228.17,12.7,228.19,12.56Zm-2.77.44a5.51,5.51,0,0,1,.82-1.06,0.67,0.67,0,0,0,.11-1c-0.11-.19-0.21-0.19-0.32,0A3.3,3.3,0,0,0,225.42,13Zm12.89-1.11c0.26-.25.5-0.49,0.77-0.71s0.12-.29-0.06-0.35a4.07,4.07,0,0,0-1.25-.23c-0.2,0-.23.09-0.14,0.24A5,5,0,0,0,238.32,11.89Zm-12.56-1.12c0.25-.42.76-0.76,0.3-1.36-0.11-.14-0.13-0.22-0.32-0.1-0.84.55-.86,0.81-0.09,1.41ZM239.52,8.6a0.82,0.82,0,0,0-.44-0.32A1,1,0,0,0,238.19,8a1,1,0,0,0,.24.93c0.06,0.13.14,0.36,0.35,0.25A2,2,0,0,0,239.52,8.6Zm0.68,4.31c0.3-.24.68-0.46,0.53-0.82a2,2,0,0,0-1.13-1A10.7,10.7,0,0,0,240.2,12.91Zm-5.53,1.36a0.92,0.92,0,0,0-1,.34,0.73,0.73,0,0,1-.32.54,0.22,0.22,0,0,0-.07.31,1.6,1.6,0,0,0,.47.36c0.14,0.06.16-.12,0.2-0.22A7.86,7.86,0,0,1,234.67,14.27Zm-2,1.36h0c0-.21,0-0.43,0-0.64s-0.21-.26-0.37-0.15a1.33,1.33,0,0,0-.16,1.41,0.5,0.5,0,0,0,.43.19c0.21,0,.11-0.23.11-0.37S232.67,15.78,232.67,15.63Zm1.63-4.87c-0.35-.08-0.6-0.12-0.83-0.19s-0.32,0-.28.26a1.1,1.1,0,0,1,0,.47c-0.7.16-.1,0.53-0.16,0.8A12.35,12.35,0,0,1,234.3,10.76Zm-3.26.6a2.11,2.11,0,0,0,.67,1.5c0.08,0.11.21,0.24,0.37,0.08a0.33,0.33,0,0,0,.08-0.44A2.7,2.7,0,0,0,231,11.36Zm2.8-4.56,1,0.65c0.1,0.07.18,0.22,0.33,0.11a0.32,0.32,0,0,0,.09-0.44C234.85,6.42,234.62,6.19,233.84,6.8ZM238,21.93c1.08-.85,1.3-1.58.64-2.23A7.43,7.43,0,0,1,238,21.93Zm0.73-11.88a1.59,1.59,0,0,0-.67-1C238,9,237.77,8.8,237.66,8.91a1.23,1.23,0,0,0-.06.75,0.21,0.21,0,0,0,.23.25C238.12,10,238.41,10,238.77,10.05ZM232,17.17a3.4,3.4,0,0,0-.78-1.6C231,16.93,231,16.93,232,17.17Zm-6.5-2.59-0.37,1.7C226.15,15.89,226.3,15.34,225.5,14.58Zm6.21,0.66a2.4,2.4,0,0,0,.19-1.5l-0.76.64c-0.11.09-.19,0.19,0,0.32Zm-0.32-1.59a2.27,2.27,0,0,0-.83-0.15c-0.1-.07-0.2-0.23-0.33-0.12a0.41,0.41,0,0,0,0,.38,1.27,1.27,0,0,0,.06.39,0.35,0.35,0,0,0,.64.08Zm-4.14-5.74a0.89,0.89,0,0,0-.78-0.54,1.7,1.7,0,0,0-.63,1.12c0.23-.1.45-0.21,0.67-0.31Zm-0.87,5.24a1.14,1.14,0,0,0-.43.5,0.64,0.64,0,0,0-.22.65,0.63,0.63,0,0,0,.65,0c0.14,0,.38.06,0.3-0.23S226.49,13.47,226.39,13.15Zm3.06,1.46a1.42,1.42,0,0,0-1.34.25C228.81,15.6,228.91,15.59,229.45,14.61Zm5.24,5.2a2.78,2.78,0,0,1,1.17-.76c0.08,0,.19-0.07.14-0.16a1,1,0,0,0-.5-0.38,0.23,0.23,0,0,0-.33.1A2.3,2.3,0,0,0,234.69,19.81Zm-10-1.49c0,1,.56,1.27,1.45.79A9.11,9.11,0,0,1,224.68,18.31Zm11-9.39c0,1.22.1,1.31,1,.89A2.55,2.55,0,0,0,235.69,8.92Zm-8.85,2.95a4.69,4.69,0,0,1,1.3-.29c0.23,0,.25-0.18.22-0.36S228.19,11,228,11A2.11,2.11,0,0,0,226.84,11.87Zm1.81-1.41a2.46,2.46,0,0,0,.91.06c0.09,0,.21,0,0.2-0.13a1.58,1.58,0,0,0-.61-0.68A1.43,1.43,0,0,0,228.65,10.45ZM231,9c0.24,0.45.43,0.81,0.63,1.15,0.06,0.1.15,0.25,0.3,0.12a0.28,0.28,0,0,0,.11-0.42A2.17,2.17,0,0,0,231,9Zm-2.33,11.83c0.09-.22.16-0.41,0.24-0.6s0.22-.24,0-0.38a0.51,0.51,0,0,0-.48-0.18,0.34,0.34,0,0,0-.15.38A0.81,0.81,0,0,0,228.69,20.81Zm-3.59-4a2.83,2.83,0,0,0,.24,1c0.1,0.25.26,0.18,0.43,0.1s0.19-.23.09-0.39A1.93,1.93,0,0,0,225.1,16.82Zm5,2.55a0.85,0.85,0,0,0-1.28-.1C229.59,19.65,229.59,19.65,230.13,19.37Zm1.91-.64a2.21,2.21,0,0,0,.07-1c0-.33-0.28-0.28-0.47-0.24s-0.08.25,0,.36C231.74,18.13,231.89,18.43,232,18.73Zm3.28-8.55a0.64,0.64,0,0,0-.45-0.34c-0.18-.05-0.42-0.15-0.52.06a0.6,0.6,0,0,0,.07.61c0.17,0.21.3-.06,0.45-0.1A3.33,3.33,0,0,0,235.32,10.19Zm-6.68,1c-0.12.43,0.25,0.4,0.49,0.47s0.25-.14.25-0.3a0.46,0.46,0,0,0-.47-0.51C228.66,10.87,228.58,11,228.64,11.23Zm9.2,9.82a3.14,3.14,0,0,0,.29-1.71C237.65,19.77,237.65,19.77,237.84,21Zm-10-6.1a0.41,0.41,0,0,0-.32.45c0,0.2-.14.52,0.15,0.57a0.43,0.43,0,0,0,.47-0.39A0.86,0.86,0,0,0,227.88,14.94Zm2.67,23.11a1,1,0,0,0,1.25-1.14A2.47,2.47,0,0,1,230.55,38.05Zm0.93-29.59a1.16,1.16,0,0,0-.18-0.64A0.47,0.47,0,0,0,231,7.45a0.58,0.58,0,0,0-.32.39c-0.12.16-.06,0.26,0.12,0.33S231.22,8.35,231.47,8.46Zm1.47,7.67c0.07,0.17-.09.47,0.17,0.48a0.48,0.48,0,0,0,.44-0.45,0.47,0.47,0,0,0-.48-0.46C232.8,15.7,233,16,232.94,16.13Zm0.79,2c0.26-.51.45-0.88,0.65-1.25,0.12-.21-0.05-0.25-0.17-0.32s-0.21,0-.24.14A4.58,4.58,0,0,0,233.73,18.18Zm-6.11-9.74a1.58,1.58,0,0,0-1,.27c-0.1,0-.23.12-0.14,0.26a0.5,0.5,0,0,0,.19.37,0.32,0.32,0,0,0,.26-0.2Zm-2.94,5.37a1.52,1.52,0,0,0,.19-0.71c0-.11.12-0.29,0-0.35a0.66,0.66,0,0,0-.43.05c-0.17.07-.08,0.22,0,0.34A1.84,1.84,0,0,0,224.68,13.81Zm7.94,4.45h0.09c0-.38,0-0.76,0-1.13a0.21,0.21,0,0,0-.26-0.23c-0.17,0-.1.18-0.07,0.28Zm1.59,1.42a2.29,2.29,0,0,0,.28-0.68c0.09-.21-0.11-0.24-0.23-0.3s-0.21.08-.23,0.2A0.77,0.77,0,0,0,234.21,19.68Zm-6.42-.08c0-.2-0.13-0.19-0.24-0.16s-0.42,0-.38.24a0.52,0.52,0,0,0,.36.52A1,1,0,0,0,227.79,19.6Zm5.4-1.77c0.1-.29.18-0.5,0.24-0.71s0.11-.24-0.08-0.26-0.32,0-.32.19A1.25,1.25,0,0,0,233.19,17.83ZM236,17.89a1,1,0,0,0,.43.34,1.49,1.49,0,0,0,.18-0.54A1.24,1.24,0,0,0,236,17.89Z"/><path class="cls-2" d="M181.11,38.46c-0.5-.11-1-0.19-1.49-0.32a5.59,5.59,0,0,1-4.39-4.59,6.08,6.08,0,0,1,2.08-6.2,6.43,6.43,0,0,1,3.88-1.28,14.49,14.49,0,0,1,3.59.33l0.19,0c0.84,0.12.83,0.12,0.77,1,0,0.57-.07,1.15-0.1,1.77a0.59,0.59,0,0,1-.24-0.53,1.71,1.71,0,0,0-.88-1.26,6.19,6.19,0,0,0-6,0,4.13,4.13,0,0,0-2,3.52,6,6,0,0,0,2.63,6,5.64,5.64,0,0,0,4.37.78,0.9,0.9,0,0,0,.89-1.12c0-.91,0-1.82,0-2.73s-0.16-1.16-1.14-1.31a0.23,0.23,0,0,1-.18-0.12h3.77a0.37,0.37,0,0,1-.34.15,0.8,0.8,0,0,0-.75.88c-0.09,1.17,0,2.35,0,3.52,0,0.78,0,.77-0.74,1.06s-1.25.27-1.85,0.47h-2Z"/><path class="cls-2" d="M138.93,38.46a1.06,1.06,0,0,0-.56-0.15,4,4,0,0,1-3.2-3.76c-0.16-1.47-.06-2.94-0.09-4.41,0-.81,0-1.62,0-2.43A1,1,0,0,0,134,26.48a0.38,0.38,0,0,1-.35-0.2c1.32,0,2.57.07,3.81,0a0.18,0.18,0,0,1-.19.23c-0.68.17-.82,0.28-0.83,1a66,66,0,0,0,.08,7.18,3.32,3.32,0,0,0,2,3,3.38,3.38,0,0,0,3.54-.54,3.24,3.24,0,0,0,1.07-1.9,8.23,8.23,0,0,0,.21-1.92c0-1.7,0-3.41,0-5.11,0-1.42.06-1.45-1.28-1.75a14.34,14.34,0,0,1,3.34,0,0.19,0.19,0,0,1,0,.08c-1,.16-1,0.31-1,1.43,0,1.75,0,3.5,0,5.26a8.11,8.11,0,0,1-.33,2.35,4.07,4.07,0,0,1-3.18,2.88,0.52,0.52,0,0,0-.36.12h-1.59Z"/><path class="cls-2" d="M112.93,11.17h3.86a0.53,0.53,0,0,1-.08.15c-0.9.19-1,.29-1,1.21,0,2.07,0,4.13,0,6.2a4.26,4.26,0,0,0,1.11,3.09,3.35,3.35,0,0,0,5.54-1.34,7.36,7.36,0,0,0,.32-2.25c0-1.75,0-3.5,0-5.26,0-1.38,0-1.41-1.29-1.69a12.77,12.77,0,0,1,3.37,0,0.18,0.18,0,0,1-.2.09,0.78,0.78,0,0,0-.84.89c-0.11,1.37,0,2.74,0,4.11a20.61,20.61,0,0,1-.19,3.41,4.37,4.37,0,0,1-5.14,3.55q-3.89-.49-4-4.56c0-1.82,0-3.64,0-5.45,0-.23,0-0.46,0-0.69-0.06-1.08-.29-1.28-1.38-1.24v-0.2Z"/><path class="cls-2" d="M184.28,1.84a2.25,2.25,0,0,0,.28.88q0.8,2.11,1.62,4.2a1.33,1.33,0,0,0,.87,1h-1.15c-0.08,0-.19,0-0.21-0.13A6.67,6.67,0,0,0,185.11,6c-0.32-.82-1-0.24-1.55-0.4A0.43,0.43,0,0,0,183,6c-0.12.41-.28,0.81-0.4,1.22a0.47,0.47,0,0,0,.29.68c-0.66,0-1.21,0-1.76,0a1.27,1.27,0,0,1-.89-0.58c-0.51-.63-1-1.27-1.5-1.91A0.86,0.86,0,0,0,178.32,5a21.24,21.24,0,0,0,.06,2.43,0.53,0.53,0,0,0,.46.44h-1.52a0.59,0.59,0,0,0,.34-0.58c0.11-1.54,0-3.07,0-4.61A0.63,0.63,0,0,0,177.19,2h1.56a0.7,0.7,0,0,0-.43.8c0,0.51,0,1,0,1.54a0.24,0.24,0,0,0,.07.27c0.12,0.06.17-.06,0.24-0.13l1.76-1.82A0.51,0.51,0,0,0,180.55,2h1.34A12.21,12.21,0,0,0,179,4.43c-0.15.13-.08,0.26,0,0.39,0.68,0.87,1.35,1.76,2.1,2.57,0.47,0.5.73,0.46,1-.16,0.67-1.79,1.31-3.59,2-5.39h0.2Zm-0.2,1.26H184c-0.21.64-.41,1.28-0.63,1.92-0.07.21,0,.31,0.2,0.3h1c0.23,0,.25-0.11.19-0.28Z"/><path class="cls-2" d="M159.87,1.84c0.66,1.69,1.31,3.38,2,5.06a1.4,1.4,0,0,0,.89,1h-1.12c-0.09,0-.21,0-0.23-0.16a11.45,11.45,0,0,0-.63-1.86,0.33,0.33,0,0,0-.39-0.28h0c-0.49,0-1.15-.22-1.44.09a4,4,0,0,0-.64,1.73,0.39,0.39,0,0,0,.23.47h-1.37a1,1,0,0,0,.76-0.76l1.92-5.3h0.1ZM159.73,3a4.78,4.78,0,0,0-.45,1.16c-0.41,1.2-.4,1.2.89,1.13h0.1c0.18,0,.25-0.07.19-0.24Z"/><path class="cls-2" d="M199.37,1.84c0.69,0.11.44,0.64,0.45,1.07a1.06,1.06,0,0,0-1.19-.8,0.9,0.9,0,0,0-.88.52,1,1,0,0,0,.15,1.07,8.3,8.3,0,0,0,1.11,1,2.33,2.33,0,0,1,.93,1.3A1.7,1.7,0,0,1,198,8c-1.06-.08-1.1-0.13-1-1.32a1.34,1.34,0,0,0,.48.81,1.34,1.34,0,0,0,.94.21,1.09,1.09,0,0,0,.84-1.63,2.1,2.1,0,0,0-.54-0.64L198,4.84c-1.25-1.07-1.15-2.23.26-3h1.09Z"/><path class="cls-2" d="M209.19,26.33c-1.07.45-1.07,0.46-1.08,1.65q0,4.89,0,9.77c0,0.08,0,.17,0,0.25a0.31,0.31,0,0,1-.11.31,0.28,0.28,0,0,1-.3-0.14c-0.53-.52-1.07-1-1.59-1.56-2.47-2.53-4.87-5.13-7.22-7.78a0.47,0.47,0,0,0-.27-0.19c0,0.7,0,1.39,0,2.09,0,1.78.11,3.57,0.16,5.35a5.77,5.77,0,0,0,.09,1,0.86,0.86,0,0,0,.94.88,0.9,0.9,0,0,1,.56.21c-1.32,0-2.5-.06-3.68,0,0-.21.1-0.2,0.17-0.22,0.85-.19,1-0.32,1-1.19,0-2.05,0-4.1,0-6.15,0-1.24,0-2.48,0-3.72a6.63,6.63,0,0,1,.06-0.69c0-.22.14-0.25,0.29-0.11s0.26,0.26.38,0.39l8.4,9.12a0.84,0.84,0,0,0,.36.32c0-1.19,0-2.36,0-3.54,0-1.44-.06-2.87-0.09-4.31,0-.18,0-0.36,0-0.54a0.94,0.94,0,0,0-1.05-1.09,0.7,0.7,0,0,1-.37-0.17C206.91,26.29,208,26.36,209.19,26.33Z"/><path class="cls-2" d="M136,21c0-1.55,0-2.92,0-4.29s-0.06-2.68-.1-4c0-1.12-.15-1.25-1.29-1.37a0.2,0.2,0,0,1-.17-0.13H138c-1.16.46-1.15,0.46-1.16,1.72q0,4.76,0,9.52a0.68,0.68,0,0,1-.16.72,0.71,0.71,0,0,1-.58-0.4c-2.9-2.85-5.64-5.86-8.36-8.88a1,1,0,0,0-.42-0.37,3.15,3.15,0,0,0,0,1.17c0.06,2.3.1,4.59,0.2,6.89,0,1.1.15,1.16,1.28,1.34a0.24,0.24,0,0,1,.17.14c-1.22.05-2.43,0-3.68,0.09a0.29,0.29,0,0,1,.35-0.25,0.76,0.76,0,0,0,.84-0.88c0.15-1.7,0-3.4.07-5.11s0-3.57,0-5.36c0-.2-0.11-0.49.14-0.57a0.52,0.52,0,0,1,.45.33l8.43,9.16C135.69,20.61,135.8,20.77,136,21Z"/><path class="cls-2" d="M163.57,28.64c0,1.89,0,3.75,0,5.62,0,0.87,0,1.75.11,2.62s0.2,1,1.12,1.13a0.44,0.44,0,0,1,.27.16c-1.19.07-2.38,0-3.61,0.1a0.29,0.29,0,0,1,.28-0.25,0.85,0.85,0,0,0,.91-1.08c0-1.75,0-3.5,0-5.26s0-3.37,0-5.06a0.48,0.48,0,0,1,.11-0.5c0.22-.09.33,0.17,0.45,0.3l8.43,9.15a1.14,1.14,0,0,0,.49.42,8.52,8.52,0,0,0,0-1.57c0-2.15-.08-4.3-0.12-6.44a4.32,4.32,0,0,0,0-.54,0.85,0.85,0,0,0-.95-0.92,0.58,0.58,0,0,1-.47-0.19c1.15,0,2.3,0,3.46,0C173,26.79,173,26.79,173,28q0,4.71,0,9.42c0,0.18,0,.36,0,0.55a0.33,0.33,0,0,1-.09.32c-0.15.09-.25-0.06-0.33-0.14-0.73-.72-1.46-1.44-2.18-2.17-2.27-2.33-4.46-4.74-6.64-7.16A0.62,0.62,0,0,0,163.57,28.64Z"/><path class="cls-2" d="M175.22,23.12a7,7,0,0,1-2.89-.25,2,2,0,0,1-.93-1.12c-0.5-1.1-1-2.19-1.47-3.3a0.56,0.56,0,0,0-.63-0.42,2.68,2.68,0,0,1-.35,0c-1,0-1,0-1,1s0,1.78.06,2.67,0.16,1.11,1.15,1.22a0.3,0.3,0,0,1,.27.09,21,21,0,0,1-3.85,0,0.36,0.36,0,0,1,.11-0.09c0.81-.21.91-0.29,0.94-1.11,0.11-2.76.13-5.51,0-8.27,0-.38,0-0.76,0-1.14a0.89,0.89,0,0,0-1-1,0.32,0.32,0,0,1-.26-0.08c0-.15.16-0.1,0.25-0.1,1.64,0,3.27,0,4.91,0a3,3,0,0,1,3.21,2.72,3.66,3.66,0,0,1-2.31,3.64c-0.41.16-.43,0.29-0.25,0.65,0.51,1,1,2.08,1.46,3.14a2.37,2.37,0,0,0,2.2,1.57l0.19,0A1.36,1.36,0,0,1,175.22,23.12Zm-7.3-8.62c0,0.79,0,1.59,0,2.38a0.49,0.49,0,0,0,.43.56,5.75,5.75,0,0,0,1.13.12,2.72,2.72,0,0,0,3-2.35,3.09,3.09,0,0,0-2.3-3.5,6.61,6.61,0,0,0-1.83,0,0.41,0.41,0,0,0-.42.49C167.93,12.95,167.92,13.73,167.92,14.5Z"/><path class="cls-2" d="M147,38.16a0.17,0.17,0,0,1,0-.06c1-.12,1-0.87,1-1.61,0-2,0-3.93,0-5.9,0-.93,0-1.85,0-2.78s-0.18-1.28-1.09-1.35a0.22,0.22,0,0,1-.22-0.13,2.93,2.93,0,0,1,1.31,0,18.52,18.52,0,0,0,1.93,0,5.55,5.55,0,0,1,1.77.17A2.37,2.37,0,0,1,153.33,30a7.69,7.69,0,0,1-1.14,1.53l0.55,0.26a3.38,3.38,0,0,1,2.05,3.82,3.59,3.59,0,0,1-3.46,2.68c-0.73,0-1.45,0-2.18-.05-0.57,0-1.15,0-1.73,0A0.46,0.46,0,0,1,147,38.16Zm2.32-3.8h0q0,0.47,0,.94c0,0.33,0,.66,0,1a1.21,1.21,0,0,0,1.28,1.47,2.27,2.27,0,0,0,2.85-1.64,3.5,3.5,0,0,0-3.85-4.25,0.29,0.29,0,0,0-.28.36C149.33,32.94,149.33,33.65,149.33,34.36Zm0-5.25V30c0,1.47,0,1.44,1.48,1.41a1.46,1.46,0,0,0,1.43-1,3.06,3.06,0,0,0,.07-2.08,2.09,2.09,0,0,0-2.55-1.62,0.42,0.42,0,0,0-.42.49C149.34,27.85,149.33,28.48,149.33,29.11Z"/><path class="cls-2" d="M202,23.08c-1.15,0-2.3,0-3.47.07,0-.27.18-0.24,0.27-0.24a1.41,1.41,0,0,0,1.39-1c0.31-.78.6-1.57,0.89-2.36l3-8.13a0.46,0.46,0,0,1,.28-0.43c0.25,0,.26.26,0.33,0.43,1.19,3.08,2.37,6.16,3.57,9.23a12.5,12.5,0,0,0,.6,1.3,1.6,1.6,0,0,0,1.45,1,0.65,0.65,0,0,1,.19.05,0.39,0.39,0,0,1,0,.11,26.76,26.76,0,0,1-3.24,0,0.7,0.7,0,0,0,.12-0.91c-0.42-1.09-.84-2.19-1.24-3.29a0.58,0.58,0,0,0-.64-0.46q-1.34,0-2.68,0a0.58,0.58,0,0,0-.66.5c-0.25.82-.54,1.63-0.82,2.44C200.94,22.49,201,22.6,202,23.08ZM204,13.34a0.45,0.45,0,0,0-.08.11c-0.45,1.38-.9,2.76-1.35,4.14-0.12.35,0.13,0.3,0.32,0.3,0.79,0,1.59,0,2.38,0,0.37,0,.41-0.13.29-0.44-0.44-1.23-.87-2.46-1.31-3.68A0.57,0.57,0,0,0,204,13.34Z"/><path class="cls-2" d="M143.61,11.2h4c0,0.16-.09.14-0.16,0.15-0.75.09-.85,0.22-0.6,0.91q1.63,4.41,3.29,8.81a0.33,0.33,0,0,0,.24-0.3c1.14-2.75,2.22-5.51,3.2-8.32,0-.11.07-0.22,0.1-0.33,0.14-.54,0-0.72-0.56-0.77l-0.24,0,0,0a12.6,12.6,0,0,1,3.24-.06,0.24,0.24,0,0,1,0,.08,1.67,1.67,0,0,0-1.56,1.35q-1.92,4.62-3.86,9.23c-0.17.41-.36,0.81-0.56,1.22s-0.32.32-.47,0-0.25-.61-0.38-0.92c-1.24-3.1-2.49-6.18-3.7-9.29-0.36-.92-0.78-1.65-2-1.55Z"/><path class="cls-2" d="M163.09,13.06c-0.28-1.2-.48-1.16-1.63-1.28-0.54-.06-1.09,0-1.63,0a0.31,0.31,0,0,0-.38.37c0,1.32,0,2.65,0,4a0.33,0.33,0,0,0,.41.39l2.23,0a1.27,1.27,0,0,0,1-.54l-0.24,2.47c-0.46-1.26-.46-1.27-1.78-1.33l-1.24,0a0.33,0.33,0,0,0-.42.39c0,1.32,0,2.65,0,4a1,1,0,0,0,1.06,1.15,6.67,6.67,0,0,0,1.68,0,1.26,1.26,0,0,0,1.33-1.16,0.27,0.27,0,0,1,.19-0.3,5.29,5.29,0,0,1-.23,1.88,0.43,0.43,0,0,1-.5.23c-1.09,0-2.18,0-3.27-.06a12.6,12.6,0,0,0-2.18,0A0.58,0.58,0,0,1,157,23a0.4,0.4,0,0,1,.11-0.1,0.93,0.93,0,0,0,.95-1.16c0.12-3.12.12-6.24,0-9.37a0.89,0.89,0,0,0-1-1.05,0.25,0.25,0,0,1-.28-0.12,1.28,1.28,0,0,1,.7-0.07l4.51,0a4.2,4.2,0,0,0,1.08-.09c0.1,0,.3-0.08.26,0.09C163.23,11.8,163.27,12.45,163.09,13.06Z"/><path class="cls-2" d="M194.31,31l-0.23,2.33a0.34,0.34,0,0,1-.12,0c-0.19-1-.34-1.1-1.34-1.13L191,32.12a0.34,0.34,0,0,0-.41.4c0,1.27,0,2.55,0,3.82a1.08,1.08,0,0,0,1.24,1.31,6.52,6.52,0,0,0,1.53,0,1.25,1.25,0,0,0,1.3-1.19,0.28,0.28,0,0,1,.22-0.3,6.16,6.16,0,0,1-.27,1.94,0.41,0.41,0,0,1-.47.19c-1.16,0-2.32,0-3.47-.05-0.68,0-1.35,0-2,0a0.42,0.42,0,0,1-.42-0.07,0.18,0.18,0,0,1,0-.08c0.91-.3.93-0.3,1-1.31,0.15-3,.08-6.08,0-9.13,0-.85-0.17-1-1-1.15a0.64,0.64,0,0,1-.28-0.11,4,4,0,0,1,1.48-.08,29.2,29.2,0,0,0,4.85-.09c0.11,0,.23,0,0.21.11-0.11.62-.14,1.26-0.19,1.9a0.23,0.23,0,0,1-.22-0.21,0.94,0.94,0,0,0-1-1.05c-0.67-.06-1.35-0.05-2-0.09a0.36,0.36,0,0,0-.44.43q0,1.94,0,3.87a0.36,0.36,0,0,0,.44.43c0.79,0,1.59-.06,2.38-0.07A1.29,1.29,0,0,0,194.31,31Z"/><path class="cls-2" d="M208.94,13a10.43,10.43,0,0,1,.37-1.87c0-.17.18-0.17,0.32-0.12a4.86,4.86,0,0,0,1.61.19h6.35a6,6,0,0,0,1-.1c0.18,0,.35,0,0.34.22,0,0.6-.06,1.2-0.09,1.81a0.37,0.37,0,0,1-.13-0.05,1.29,1.29,0,0,0-1.47-1.19c-0.74-.05-1.49,0-2.23-0.05a0.28,0.28,0,0,0-.34.35q0,4.73,0,9.47a2.33,2.33,0,0,0,0,.34,0.82,0.82,0,0,0,1,.92,0.55,0.55,0,0,1,.51.22c-1.38,0-2.67-.08-4,0a0.78,0.78,0,0,1,0-.19c0.9-.14,1-0.2,1-1.29,0.08-3.17,0-6.34.06-9.52a0.28,0.28,0,0,0-.35-0.34c-0.86,0-1.72,0-2.58,0a1.32,1.32,0,0,0-1.25.82A0.37,0.37,0,0,1,208.94,13Z"/><path class="cls-2" d="M189.41,12.94a9.67,9.67,0,0,1,.38-1.85c0-.17.2-0.14,0.33-0.09a5.22,5.22,0,0,0,1.67.18H198a5.57,5.57,0,0,0,1.08-.1c0.2,0,.36,0,0.36.26,0,0.59,0,1.17,0,1.79a0.92,0.92,0,0,1-.2-0.06c-0.13-.9-0.34-1.07-1.52-1.2-0.72-.08-1.45,0-2.18-0.05-0.2,0-.35,0-0.35.28,0,3.26-.1,6.51.09,9.77,0,0.86.18,0.94,1.06,1a0.52,0.52,0,0,1,.31.14c-1.29.08-2.58,0-4,.13a1,1,0,0,1,.18-0.22,1,1,0,0,0,1-1.2c0.12-3.17.07-6.35,0.08-9.52a0.33,0.33,0,0,0-.4-0.41c-0.81,0-1.62,0-2.43,0a1.39,1.39,0,0,0-1.41.9A0.2,0.2,0,0,1,189.41,12.94Z"/><path class="cls-2" d="M129.86,38.11c-1.29.13-2.57,0-3.78,0.15-0.11-.17,0-0.19,0-0.2,0.87-.27.92-0.34,1-1.27,0.14-3.14,0-6.28.07-9.42,0-.26,0-0.45-0.37-0.44-0.84,0-1.68.05-2.53,0.07a1.32,1.32,0,0,0-1.31.87,0.23,0.23,0,0,1-.25.2,9.2,9.2,0,0,1,.38-1.86,0.17,0.17,0,0,1,.27-0.11,5.3,5.3,0,0,0,1.86.22c2,0,3.94,0,5.9,0a6.07,6.07,0,0,0,1.28-.13c0.18,0,.29,0,0.29.2,0,0.6,0,1.2,0,1.85a0.3,0.3,0,0,1-.27-0.33,0.88,0.88,0,0,0-.72-0.79,12.21,12.21,0,0,0-3-.19c-0.28,0-.23.23-0.24,0.4q0,1.19,0,2.38,0,3.3,0,6.6c0,0.1,0,.2,0,0.3,0.11,1.15.11,1.15,1.25,1.41A0.8,0.8,0,0,1,129.86,38.11Z"/><path class="cls-2" d="M182,13.24a0.84,0.84,0,0,1-.08-0.17,2.22,2.22,0,0,0-3.54-1.15,1.94,1.94,0,0,0-.31,2.45,5,5,0,0,0,1.16,1.21,15.42,15.42,0,0,1,2.46,2.22,3.43,3.43,0,0,1-.22,4.6,3,3,0,0,1-1.14.68,5.24,5.24,0,0,1-3.4,0,0.65,0.65,0,0,1-.54-0.75,18.2,18.2,0,0,1,.1-1.86,0.17,0.17,0,0,1,.19.21A2.32,2.32,0,1,0,181,19.3a7.26,7.26,0,0,0-1.6-1.61A13,13,0,0,1,177.63,16a3.35,3.35,0,0,1-.84-2.47A2.72,2.72,0,0,1,179.2,11a7.21,7.21,0,0,1,2.8.17c0.1,0,.2,0,0.2.16,0,0.63,0,1.27,0,1.9H182Z"/><path class="cls-2" d="M160.1,38.24c-1.28,0-2.56-.09-3.88,0a0.57,0.57,0,0,1,.07-0.17,1,1,0,0,0,1-1.31c0.08-3.11.07-6.21,0-9.32a0.81,0.81,0,0,0-.8-0.94,0.31,0.31,0,0,1-.32-0.24c1.2,0,2.37.07,3.53,0,0,0.2-.08.19-0.15,0.21a0.88,0.88,0,0,0-.88,1.12q0,4.39,0,8.78c0,0.13,0,.26,0,0.4,0.07,1,.17,1.1,1.15,1.24a2.52,2.52,0,0,1,.28.07v0.16Z"/><path class="cls-2" d="M188.49,23.14a38.89,38.89,0,0,0-3.91,0c0.08-.22.17-0.23,0.25-0.23a0.74,0.74,0,0,0,.77-0.79,13.43,13.43,0,0,0,.1-1.93c0-2.4,0-4.8,0-7.19,0-1.31,0-1.31-1.25-1.79h3.68a0.32,0.32,0,0,1-.05.11c-0.93.2-1,.28-1,1.3q-0.11,4.44,0,8.88c0,1.28.31,1.46,1.27,1.43a0.59,0.59,0,0,1,.18.05v0.16Z"/><path class="cls-2" d="M143.24,23.14c-1.4,0-2.68-.09-4,0a0.62,0.62,0,0,1,0-.18c0.87-.26.86-0.26,1-1.16a23.8,23.8,0,0,0,.06-2.73c0-2,0-4,0-6,0-.12,0-0.23,0-0.35,0-1.07-.12-1.2-1.13-1.51h3.61c-1,.44-1.08.44-1.13,1.61-0.09,2.58-.07,5.16,0,7.73,0,0.41,0,.83,0,1.24a0.91,0.91,0,0,0,1.07,1.1A0.51,0.51,0,0,1,143.24,23.14Z"/><path class="cls-2" d="M168.47,8a1.05,1.05,0,0,0,.34-0.85c0-1.5,0-3,0-4.51A0.6,0.6,0,0,0,168.25,2a30.18,30.18,0,0,1,3.33,0,2.75,2.75,0,0,1,2.56,3.07A3,3,0,0,1,171.24,8C170.32,8,169.4,8,168.47,8Zm1-3.2h0c0,0.73,0,1.46,0,2.18a0.64,0.64,0,0,0,.6.71A2.81,2.81,0,0,0,172.84,7a2.78,2.78,0,0,0,.45-2.81,3.08,3.08,0,0,0-3.57-1.91,0.34,0.34,0,0,0-.25.42Q169.48,3.72,169.48,4.78Z"/><path class="cls-2" d="M154.79,2h1.63a0.67,0.67,0,0,0-.44.83c0,1.44,0,2.88,0,4.31a0.62,0.62,0,0,0,.52.77h-1.59a0.7,0.7,0,0,0,.38-0.73c0-.68,0-1.36,0-2A0.31,0.31,0,0,0,155,4.73c-0.91,0-1.82,0-2.73,0a0.33,0.33,0,0,0-.39.42c0,0.69,0,1.39.06,2.08a0.55,0.55,0,0,0,.54.65h-1.66A0.72,0.72,0,0,0,151.21,7c0-1.47,0-2.94,0-4.41A0.65,0.65,0,0,0,150.69,2h1.69a0.78,0.78,0,0,0-.51.89c-0.16,1.6-.16,1.6,1.4,1.6,0.56,0,1.12,0,1.69,0a0.3,0.3,0,0,0,.37-0.37c0-.45,0-0.89,0-1.34A0.65,0.65,0,0,0,154.79,2Z"/><path class="cls-2" d="M192.14,7.84c-1.16.18-1.4,0.06-1.86-.94l-0.49-1.08a0.76,0.76,0,0,0-.95-0.42,0.23,0.23,0,0,0-.12.28c0,0.53,0,1.06,0,1.59a0.54,0.54,0,0,0,.53.61H187.7a0.75,0.75,0,0,0,.36-0.74c0-1.49,0-3,0-4.46A0.63,0.63,0,0,0,187.53,2c0.83,0,1.67,0,2.5,0a1.43,1.43,0,0,1,1.52,1.16A1.72,1.72,0,0,1,190.7,5c-0.44.22-.48,0.41-0.25,0.8a10.38,10.38,0,0,1,.5,1.08A1.34,1.34,0,0,0,192.14,7.84Zm-3.43-4.2q0,0.55,0,1.09a0.33,0.33,0,0,0,.16.33,1.52,1.52,0,0,0,2.08-1,1.54,1.54,0,0,0-1.68-1.87c-0.41,0-.62.1-0.56,0.56A7.37,7.37,0,0,1,188.71,3.64Z"/><path class="cls-2" d="M167.72,7.87c-1.17.14-1.37,0-1.84-1-0.18-.39-0.36-0.78-0.52-1.17A0.41,0.41,0,0,0,165,5.39c-0.65,0-.66,0-0.66.6,0,0.4,0,.79,0,1.19a0.57,0.57,0,0,0,.53.7h-1.62a0.62,0.62,0,0,0,.42-0.65q0-2.28,0-4.56A0.63,0.63,0,0,0,163.19,2c0.83,0,1.67,0,2.49,0a1.43,1.43,0,0,1,1.48,1.15A1.73,1.73,0,0,1,166.32,5c-0.51.24-.44,0.47-0.23,0.85s0.3,0.66.45,1A1.44,1.44,0,0,0,167.72,7.87Zm-3.4-4.21q0,0.54,0,1.09a0.31,0.31,0,0,0,.16.33,1.54,1.54,0,0,0,2.05-.91,1.59,1.59,0,0,0-2-1.95,0.26,0.26,0,0,0-.23.31C164.32,2.9,164.32,3.28,164.32,3.66Z"/><path class="cls-2" d="M136.61,2c0.58,0,1.16,0,1.73,0a1.4,1.4,0,0,1,1.38.7,1.33,1.33,0,0,1-.31,1.55c-0.26.29-.18,0.39,0.12,0.55a1.62,1.62,0,0,1,.92,1.72A1.72,1.72,0,0,1,139,7.89a4.34,4.34,0,0,1-1.13,0c-0.38,0-.76,0-1.27,0a0.65,0.65,0,0,0,.48-0.66c0-1.54,0-3.07,0-4.61A0.65,0.65,0,0,0,136.61,2Zm1.11,4.11h0c0,0.35,0,.69,0,1a0.5,0.5,0,0,0,.23.46,1.24,1.24,0,0,0,1.83-.72,1.76,1.76,0,0,0-1.72-2.11c-0.25,0-.36.07-0.35,0.34S137.72,5.73,137.72,6.06Zm0-2.71c0,0.28,0,.56,0,0.84,0,0.11,0,.29.1,0.3a1.27,1.27,0,0,0,1.09-.11A1.29,1.29,0,0,0,139.19,3a1,1,0,0,0-.87-0.84c-0.46-.07-0.6,0-0.6.49C137.72,2.89,137.72,3.12,137.72,3.35Z"/><path class="cls-2" d="M150.17,7.85c-1.19.13-1.34,0.05-1.83-1l-0.47-1a0.77,0.77,0,0,0-1-.42,0.26,0.26,0,0,0-.15.32c0,0.5,0,1,0,1.49a0.56,0.56,0,0,0,.56.68h-1.6a0.5,0.5,0,0,0,.35-0.53c0.12-1.6.06-3.2,0-4.81A0.6,0.6,0,0,0,145.63,2c0.85,0,1.7,0,2.55,0a1.42,1.42,0,0,1,1.45,1.12,1.73,1.73,0,0,1-.86,1.9c-0.44.21-.44,0.41-0.24,0.77s0.4,0.83.59,1.25A1.29,1.29,0,0,0,150.17,7.85Zm-3.41-4.19c0,0.35,0,.69,0,1a0.34,0.34,0,0,0,.28.4,1.69,1.69,0,0,0,1.66-.38,1.45,1.45,0,0,0,.19-1.67,1.47,1.47,0,0,0-1.63-.86c-0.37,0-.56.12-0.51,0.52S146.76,3.35,146.76,3.66Z"/><path class="cls-2" d="M132,2h2.86c0.2,0,.27.07,0.25,0.26a4.07,4.07,0,0,1-.09.62,0.63,0.63,0,0,0-.68-0.56c-0.33,0-.66,0-1,0-0.15,0-.15.16-0.15,0.27,0,0.59,0,1.19,0,1.78a0.27,0.27,0,0,0,.33.31,3.31,3.31,0,0,0,1.49-.19l-0.1.94a1.71,1.71,0,0,0-1.62-.47,0.26,0.26,0,0,0-.1.26q0,1,0,1.93a0.48,0.48,0,0,0,.52.53h0.59A0.76,0.76,0,0,0,135.3,7c0.08,0.88,0,.94-0.79.94a22.14,22.14,0,0,0-2.36,0,0.9,0.9,0,0,0,.44-0.9c0-1.39,0-2.77,0-4.16C132.59,2.45,132.59,2,132,2Z"/><path class="cls-2" d="M144.45,4.44l-0.09.91a1.74,1.74,0,0,0-1.6-.45,0.24,0.24,0,0,0-.13.24c0,0.66,0,1.32,0,2a0.5,0.5,0,0,0,.55.51h0.45A0.83,0.83,0,0,0,144.71,7c0.07,0.92,0,1-.83,1s-1.51-.12-2.3-0.07a0.56,0.56,0,0,0,.35-0.51c0.12-1.62.07-3.23,0-4.85A0.62,0.62,0,0,0,141.46,2h2.33c0.81,0,.81,0,0.66.93a0.79,0.79,0,0,0-1-.65c-0.85,0-.85,0-0.85.83,0,0.4,0,.79,0,1.19a0.29,0.29,0,0,0,.35.35A3.46,3.46,0,0,0,144.45,4.44Z"/><path class="cls-2" d="M192.9,2h1.66a0.7,0.7,0,0,0-.46.83c0,1.19,0,2.38,0,3.57,0,0.44-.18,1,0.45,1.23a1.48,1.48,0,0,0,1.9-.63,1.73,1.73,0,0,1,0,.59,0.43,0.43,0,0,1-.51.41C195,8,194,7.83,193.08,7.89a0.65,0.65,0,0,0,.35-0.63c0-1.52,0-3,0-4.56A0.62,0.62,0,0,0,192.9,2Z"/><path class="cls-2" d="M140.7,27.18a0.61,0.61,0,0,1-.64.65,0.64,0.64,0,0,1-.7-0.66A0.63,0.63,0,0,1,140,26.5,0.67,0.67,0,0,1,140.7,27.18Z"/><path class="cls-2" d="M206.44,12.61a0.64,0.64,0,0,1-.63-0.68,0.61,0.61,0,0,1,.69-0.65,0.57,0.57,0,0,1,.62.65A0.65,0.65,0,0,1,206.44,12.61Z"/><path class="cls-2" d="M139.37,30.36a0.59,0.59,0,0,1,.64-0.64,0.63,0.63,0,0,1,.7.65,0.61,0.61,0,0,1-.64.65A0.63,0.63,0,0,1,139.37,30.36Z"/><path class="cls-2" d="M203.05,11.91a0.64,0.64,0,0,1-.66.69,0.63,0.63,0,0,1-.63-0.67,0.59,0.59,0,0,1,.67-0.66A0.56,0.56,0,0,1,203.05,11.91Z"/><path class="cls-3" d="M106,16.31h2.75v0.52H106v2.74h-0.52V16.83h-2.74V16.31h2.74V13.55H106v2.75Z"/></svg>